<svg width="50" height="100" viewBox="0 0 50 100" fill="none" xmlns="http://www.w3.org/2000/svg">
<rect x="1" y="1" width="48" height="98" rx="4" fill="white" stroke="black" stroke-width="2"/>
<line y1="49" x2="50" y2="49" stroke="black" stroke-width="2"/>
<path d="M25.3047 25.3945C26.875 25.3945 28.1016 25.8164 28.9844 26.6602C29.875 27.4961 30.3203 28.7461 30.3203 30.4102C30.3203 32.3789 29.7383 33.8359 28.5742 34.7812C27.418 35.7188 25.8008 36.1875 23.7227 36.1875C23.2773 36.1875 22.793 36.1406 22.2695 36.0469C21.7539 35.9609 21.2617 35.8477 20.793 35.707C20.332 35.5586 19.957 35.3984 19.668 35.2266L20.4414 33.1406C21.3477 33.4922 22.332 33.668 23.3945 33.668C24.4492 33.668 25.2383 33.4531 25.7617 33.0234C26.293 32.5938 26.5586 31.8984 26.5586 30.9375C26.5586 29.6328 26.2539 28.7773 25.6445 28.3711C25.168 28.0352 24.5938 27.8672 23.9219 27.8672C23.2656 27.8672 22.3906 27.9453 21.2969 28.1016L20.3359 26.332H20.3125V19.4414H29.1719V22.1719H23.3125V25.5352C23.8281 25.4414 24.4922 25.3945 25.3047 25.3945Z" fill="black"/>
</svg>
