<svg width="50" height="100" viewBox="0 0 50 100" fill="none" xmlns="http://www.w3.org/2000/svg">
<rect x="1" y="1" width="48" height="98" rx="4" fill="white" stroke="black" stroke-width="2"/>
<line y1="49" x2="50" y2="49" stroke="black" stroke-width="2"/>
<path d="M25.9453 19.3711C26.375 19.3711 26.8125 19.3945 27.2578 19.4414V19.4648L27.2812 19.4414V33.2109C27.9062 33.4609 28.3477 33.7266 28.6055 34.0078L28.3594 36H22.125L21.8789 34.0078C22.1758 33.6562 22.8242 33.3516 23.8242 33.0938V22.582C22.9258 22.4883 22.207 22.3203 21.668 22.0781V20.2617C23.0039 19.668 24.4297 19.3711 25.9453 19.3711Z" fill="black"/>
<path d="M25.9453 66.3711C26.375 66.3711 26.8125 66.3945 27.2578 66.4414V66.4648L27.2812 66.4414V80.2109C27.9062 80.4609 28.3477 80.7266 28.6055 81.0078L28.3594 83H22.125L21.8789 81.0078C22.1758 80.6562 22.8242 80.3516 23.8242 80.0938V69.582C22.9258 69.4883 22.207 69.3203 21.668 69.0781V67.2617C23.0039 66.668 24.4297 66.3711 25.9453 66.3711Z" fill="black"/>
</svg>
