<svg width="50" height="100" viewBox="0 0 50 100" fill="none" xmlns="http://www.w3.org/2000/svg">
<rect x="1" y="1" width="48" height="98" rx="4" fill="white" stroke="black" stroke-width="2"/>
<line y1="49" x2="50" y2="49" stroke="black" stroke-width="2"/>
<path d="M25.5977 19.2422C29.0586 19.2422 30.7891 20.6445 30.7891 23.4492C30.7891 24.0586 30.6367 24.7031 30.332 25.3828C30.0273 26.0625 29.6641 26.6484 29.2422 27.1406L25.7617 31.3242C25.2383 31.918 24.6172 32.5156 23.8984 33.1172L23.5117 33.457L23.6289 33.7148C24.3711 33.5742 25.1562 33.5039 25.9844 33.5039H27.8828C27.9922 32.6211 28.1914 31.9336 28.4805 31.4414L30.7539 31.582C31.1133 32.1836 31.293 33.1523 31.293 34.4883C31.293 35.0508 31.2344 35.5547 31.1172 36H20.1016L19.5273 33.0234L25.5039 26.543C26.6211 25.3164 27.1797 24.1484 27.1797 23.0391C27.1797 22.4531 27.0391 22.0273 26.7578 21.7617C26.5547 21.5742 26.2461 21.4531 25.832 21.3984C25.418 21.3438 24.9805 21.3438 24.5195 21.3984C24.0586 21.4453 23.6602 21.5352 23.3242 21.668C23.168 22.8633 22.9805 23.6406 22.7617 24L20.6289 23.8828C20.332 23.3594 20.1641 22.4688 20.125 21.2109C20.125 21.0781 20.125 20.9648 20.125 20.8711C20.1328 20.7695 20.1406 20.6914 20.1484 20.6367C21.5938 19.707 23.4102 19.2422 25.5977 19.2422Z" fill="black"/>
<path d="M26.9453 66.3711C27.375 66.3711 27.8125 66.3945 28.2578 66.4414V66.4648L28.2812 66.4414V80.2109C28.9062 80.4609 29.3477 80.7266 29.6055 81.0078L29.3594 83H23.125L22.8789 81.0078C23.1758 80.6562 23.8242 80.3516 24.8242 80.0938V69.582C23.9258 69.4883 23.207 69.3203 22.668 69.0781V67.2617C24.0039 66.668 25.4297 66.3711 26.9453 66.3711Z" fill="black"/>
</svg>
