<svg width="50" height="100" viewBox="0 0 50 100" fill="none" xmlns="http://www.w3.org/2000/svg">
<rect x="1" y="1" width="48" height="98" rx="4" fill="white" stroke="black" stroke-width="2"/>
<line y1="49" x2="50" y2="49" stroke="black" stroke-width="2"/>
<path d="M18.9609 20.543C18.9609 20.4336 18.9609 20.3359 18.9609 20.25C18.9688 20.1641 18.9766 20.0859 18.9844 20.0156C19.25 19.8828 19.6484 19.7578 20.1797 19.6406C20.7109 19.5234 21.2734 19.4297 21.8672 19.3594C22.4688 19.2812 23 19.2422 23.4609 19.2422C24.1562 19.2422 24.7891 19.3086 25.3594 19.4414C25.9375 19.5664 26.5 19.7773 27.0469 20.0742C27.5938 20.3711 28.0195 20.8125 28.3242 21.3984C28.6367 21.9844 28.793 22.6406 28.793 23.3672C28.793 24.0938 28.5781 24.7734 28.1484 25.4062C27.7188 26.0391 27.207 26.5156 26.6133 26.8359V27.0469C28.5039 27.7188 29.4492 28.9609 29.4492 30.7734C29.4492 31.9844 29.1562 32.9922 28.5703 33.7969C27.9922 34.5938 27.1836 35.1914 26.1445 35.5898C25.1133 35.9883 23.918 36.1875 22.5586 36.1875C22.1367 36.1875 21.668 36.1445 21.1523 36.0586C20.6445 35.9727 20.1602 35.8633 19.6992 35.7305C19.2383 35.5898 18.8633 35.4492 18.5742 35.3086L19.125 33.2344C20.1797 33.6406 21.1953 33.8438 22.1719 33.8438C24.5234 33.8438 25.6992 32.9961 25.6992 31.3008C25.6992 29.3789 24.7656 28.418 22.8984 28.418C22.5156 28.418 22.1445 28.4258 21.7852 28.4414C21.4336 28.457 21.0898 28.4805 20.7539 28.5117L20.543 26.4961L22.6758 26.3086C24.4883 26.1367 25.3945 25.2617 25.3945 23.6836C25.3945 22.8711 25.1992 22.2812 24.8086 21.9141C24.4258 21.5469 23.8516 21.3633 23.0859 21.3633C22.8047 21.3633 22.5156 21.3867 22.2188 21.4336C22.1094 22.3242 21.9102 22.9961 21.6211 23.4492L19.4883 23.332C19.1367 22.7695 18.9609 21.8398 18.9609 20.543Z" fill="black"/>
<path d="M24.9453 66.3711C25.375 66.3711 25.8125 66.3945 26.2578 66.4414V66.4648L26.2812 66.4414V80.2109C26.9062 80.4609 27.3477 80.7266 27.6055 81.0078L27.3594 83H21.125L20.8789 81.0078C21.1758 80.6562 21.8242 80.3516 22.8242 80.0938V69.582C21.9258 69.4883 21.207 69.3203 20.668 69.0781V67.2617C22.0039 66.668 23.4297 66.3711 24.9453 66.3711Z" fill="black"/>
</svg>
