<svg width="50" height="100" viewBox="0 0 50 100" fill="none" xmlns="http://www.w3.org/2000/svg">
<rect x="1" y="1" width="48" height="98" rx="4" fill="white" stroke="black" stroke-width="2"/>
<line y1="49" x2="50" y2="49" stroke="black" stroke-width="2"/>
<path d="M26.5195 21.457L29.0156 21.7148V29.2266H30.7852V31.6289H29.0156V33.293C29.6484 33.5352 30.0859 33.8047 30.3281 34.1016L30.0938 36H24L23.7539 34.1016C24.0664 33.7344 24.7148 33.4219 25.6992 33.1641V31.6289H18.7617L18.1406 29.7305L23.25 18.8672L25.6992 19.9219L22.6055 27.2109C22.2852 27.9531 21.9336 28.5469 21.5508 28.9922L21.3281 29.2617L21.457 29.5195C21.9883 29.3242 22.6758 29.2266 23.5195 29.2266H25.6992V25.8047C25.6992 23.7656 25.9727 22.3164 26.5195 21.457Z" fill="black"/>
<path d="M24.9453 66.3711C25.375 66.3711 25.8125 66.3945 26.2578 66.4414V66.4648L26.2812 66.4414V80.2109C26.9062 80.4609 27.3477 80.7266 27.6055 81.0078L27.3594 83H21.125L20.8789 81.0078C21.1758 80.6562 21.8242 80.3516 22.8242 80.0938V69.582C21.9258 69.4883 21.207 69.3203 20.668 69.0781V67.2617C22.0039 66.668 23.4297 66.3711 24.9453 66.3711Z" fill="black"/>
</svg>
