<svg width="50" height="100" viewBox="0 0 50 100" fill="none" xmlns="http://www.w3.org/2000/svg">
<rect x="1" y="1" width="48" height="98" rx="4" fill="white" stroke="black" stroke-width="2"/>
<line y1="49" x2="50" y2="49" stroke="black" stroke-width="2"/>
<path d="M25.3164 25.3945C26.8867 25.3945 28.1133 25.8164 28.9961 26.6602C29.8867 27.4961 30.332 28.7461 30.332 30.4102C30.332 32.3789 29.75 33.8359 28.5859 34.7812C27.4297 35.7188 25.8125 36.1875 23.7344 36.1875C23.2891 36.1875 22.8047 36.1406 22.2812 36.0469C21.7656 35.9609 21.2734 35.8477 20.8047 35.707C20.3438 35.5586 19.9688 35.3984 19.6797 35.2266L20.4531 33.1406C21.3594 33.4922 22.3438 33.668 23.4062 33.668C24.4609 33.668 25.25 33.4531 25.7734 33.0234C26.3047 32.5938 26.5703 31.8984 26.5703 30.9375C26.5703 29.6328 26.2656 28.7773 25.6562 28.3711C25.1797 28.0352 24.6055 27.8672 23.9336 27.8672C23.2773 27.8672 22.4023 27.9453 21.3086 28.1016L20.3477 26.332H20.3242V19.4414H29.1836V22.1719H23.3242V25.5352C23.8398 25.4414 24.5039 25.3945 25.3164 25.3945Z" fill="black"/>
<path d="M26.2852 66.3711C26.7148 66.3711 27.1523 66.3945 27.5977 66.4414V66.4648L27.6211 66.4414V80.2109C28.2461 80.4609 28.6875 80.7266 28.9453 81.0078L28.6992 83H22.4648L22.2188 81.0078C22.5156 80.6562 23.1641 80.3516 24.1641 80.0938V69.582C23.2656 69.4883 22.5469 69.3203 22.0078 69.0781V67.2617C23.3438 66.668 24.7695 66.3711 26.2852 66.3711Z" fill="black"/>
</svg>
