<svg width="50" height="100" viewBox="0 0 50 100" fill="none" xmlns="http://www.w3.org/2000/svg">
<rect x="1" y="1" width="48" height="98" rx="4" fill="white" stroke="black" stroke-width="2"/>
<line y1="49" x2="50" y2="49" stroke="black" stroke-width="2"/>
<path d="M25.3789 25.7812C26.957 25.7812 28.1797 26.2109 29.0469 27.0703C29.9141 27.9219 30.3477 29.1836 30.3477 30.8555C30.3477 32.5273 29.8008 33.8359 28.707 34.7812C27.6211 35.7188 26.1523 36.1875 24.3008 36.1875C22.4414 36.1875 21.1016 35.6484 20.2812 34.5703C19.4688 33.4922 19.0625 31.7852 19.0625 29.4492C19.0625 27.8867 19.3594 26.4062 19.9531 25.0078C20.5469 23.6094 21.3789 22.3945 22.4492 21.3633C23.5195 20.332 24.7734 19.5938 26.2109 19.1484L27.2188 21.1406C24.8828 22.1484 23.4219 23.8945 22.8359 26.3789C23.5859 25.9805 24.4336 25.7812 25.3789 25.7812ZM22.5195 28.8047V29.4492C22.5195 30.9961 22.6797 32.1328 23 32.8594C23.3203 33.5781 23.8242 33.9375 24.5117 33.9375C26.0977 33.9375 26.8906 32.9375 26.8906 30.9375C26.8906 29.9922 26.75 29.2852 26.4688 28.8164C26.1875 28.3398 25.7188 28.1016 25.0625 28.1016C24.0859 28.1016 23.2383 28.3359 22.5195 28.8047Z" fill="black"/>
<path d="M25.2852 66.3711C25.7148 66.3711 26.1523 66.3945 26.5977 66.4414V66.4648L26.6211 66.4414V80.2109C27.2461 80.4609 27.6875 80.7266 27.9453 81.0078L27.6992 83H21.4648L21.2188 81.0078C21.5156 80.6562 22.1641 80.3516 23.1641 80.0938V69.582C22.2656 69.4883 21.5469 69.3203 21.0078 69.0781V67.2617C22.3438 66.668 23.7695 66.3711 25.2852 66.3711Z" fill="black"/>
</svg>
