<svg width="50" height="100" viewBox="0 0 50 100" fill="none" xmlns="http://www.w3.org/2000/svg">
<rect x="1" y="1" width="48" height="98" rx="4" fill="white" stroke="black" stroke-width="2"/>
<line y1="49" x2="50" y2="49" stroke="black" stroke-width="2"/>
<path d="M26.082 19.2422C29.543 19.2422 31.2734 20.6445 31.2734 23.4492C31.2734 24.0586 31.1211 24.7031 30.8164 25.3828C30.5117 26.0625 30.1484 26.6484 29.7266 27.1406L26.2461 31.3242C25.7227 31.918 25.1016 32.5156 24.3828 33.1172L23.9961 33.457L24.1133 33.7148C24.8555 33.5742 25.6406 33.5039 26.4688 33.5039H28.3672C28.4766 32.6211 28.6758 31.9336 28.9648 31.4414L31.2383 31.582C31.5977 32.1836 31.7773 33.1523 31.7773 34.4883C31.7773 35.0508 31.7188 35.5547 31.6016 36H20.5859L20.0117 33.0234L25.9883 26.543C27.1055 25.3164 27.6641 24.1484 27.6641 23.0391C27.6641 22.4531 27.5234 22.0273 27.2422 21.7617C27.0391 21.5742 26.7305 21.4531 26.3164 21.3984C25.9023 21.3438 25.4648 21.3438 25.0039 21.3984C24.543 21.4453 24.1445 21.5352 23.8086 21.668C23.6523 22.8633 23.4648 23.6406 23.2461 24L21.1133 23.8828C20.8164 23.3594 20.6484 22.4688 20.6094 21.2109C20.6094 21.0781 20.6094 20.9648 20.6094 20.8711C20.6172 20.7695 20.625 20.6914 20.6328 20.6367C22.0781 19.707 23.8945 19.2422 26.082 19.2422Z" fill="black"/>
<path d="M26.082 65.2422C29.543 65.2422 31.2734 66.6445 31.2734 69.4492C31.2734 70.0586 31.1211 70.7031 30.8164 71.3828C30.5117 72.0625 30.1484 72.6484 29.7266 73.1406L26.2461 77.3242C25.7227 77.918 25.1016 78.5156 24.3828 79.1172L23.9961 79.457L24.1133 79.7148C24.8555 79.5742 25.6406 79.5039 26.4688 79.5039H28.3672C28.4766 78.6211 28.6758 77.9336 28.9648 77.4414L31.2383 77.582C31.5977 78.1836 31.7773 79.1523 31.7773 80.4883C31.7773 81.0508 31.7188 81.5547 31.6016 82H20.5859L20.0117 79.0234L25.9883 72.543C27.1055 71.3164 27.6641 70.1484 27.6641 69.0391C27.6641 68.4531 27.5234 68.0273 27.2422 67.7617C27.0391 67.5742 26.7305 67.4531 26.3164 67.3984C25.9023 67.3438 25.4648 67.3438 25.0039 67.3984C24.543 67.4453 24.1445 67.5352 23.8086 67.668C23.6523 68.8633 23.4648 69.6406 23.2461 70L21.1133 69.8828C20.8164 69.3594 20.6484 68.4688 20.6094 67.2109C20.6094 67.0781 20.6094 66.9648 20.6094 66.8711C20.6172 66.7695 20.625 66.6914 20.6328 66.6367C22.0781 65.707 23.8945 65.2422 26.082 65.2422Z" fill="black"/>
</svg>
