<svg width="50" height="100" viewBox="0 0 50 100" fill="none" xmlns="http://www.w3.org/2000/svg">
<rect x="1" y="1" width="48" height="98" rx="4" fill="white" stroke="black" stroke-width="2"/>
<line y1="49" x2="50" y2="49" stroke="black" stroke-width="2"/>
<path d="M19.3203 20.543C19.3203 20.4336 19.3203 20.3359 19.3203 20.25C19.3281 20.1641 19.3359 20.0859 19.3438 20.0156C19.6094 19.8828 20.0078 19.7578 20.5391 19.6406C21.0703 19.5234 21.6328 19.4297 22.2266 19.3594C22.8281 19.2812 23.3594 19.2422 23.8203 19.2422C24.5156 19.2422 25.1484 19.3086 25.7188 19.4414C26.2969 19.5664 26.8594 19.7773 27.4062 20.0742C27.9531 20.3711 28.3789 20.8125 28.6836 21.3984C28.9961 21.9844 29.1523 22.6406 29.1523 23.3672C29.1523 24.0938 28.9375 24.7734 28.5078 25.4062C28.0781 26.0391 27.5664 26.5156 26.9727 26.8359V27.0469C28.8633 27.7188 29.8086 28.9609 29.8086 30.7734C29.8086 31.9844 29.5156 32.9922 28.9297 33.7969C28.3516 34.5938 27.543 35.1914 26.5039 35.5898C25.4727 35.9883 24.2773 36.1875 22.918 36.1875C22.4961 36.1875 22.0273 36.1445 21.5117 36.0586C21.0039 35.9727 20.5195 35.8633 20.0586 35.7305C19.5977 35.5898 19.2227 35.4492 18.9336 35.3086L19.4844 33.2344C20.5391 33.6406 21.5547 33.8438 22.5312 33.8438C24.8828 33.8438 26.0586 32.9961 26.0586 31.3008C26.0586 29.3789 25.125 28.418 23.2578 28.418C22.875 28.418 22.5039 28.4258 22.1445 28.4414C21.793 28.457 21.4492 28.4805 21.1133 28.5117L20.9023 26.4961L23.0352 26.3086C24.8477 26.1367 25.7539 25.2617 25.7539 23.6836C25.7539 22.8711 25.5586 22.2812 25.168 21.9141C24.7852 21.5469 24.2109 21.3633 23.4453 21.3633C23.1641 21.3633 22.875 21.3867 22.5781 21.4336C22.4688 22.3242 22.2695 22.9961 21.9805 23.4492L19.8477 23.332C19.4961 22.7695 19.3203 21.8398 19.3203 20.543Z" fill="black"/>
<path d="M24.082 65.2422C27.543 65.2422 29.2734 66.6445 29.2734 69.4492C29.2734 70.0586 29.1211 70.7031 28.8164 71.3828C28.5117 72.0625 28.1484 72.6484 27.7266 73.1406L24.2461 77.3242C23.7227 77.918 23.1016 78.5156 22.3828 79.1172L21.9961 79.457L22.1133 79.7148C22.8555 79.5742 23.6406 79.5039 24.4688 79.5039H26.3672C26.4766 78.6211 26.6758 77.9336 26.9648 77.4414L29.2383 77.582C29.5977 78.1836 29.7773 79.1523 29.7773 80.4883C29.7773 81.0508 29.7188 81.5547 29.6016 82H18.5859L18.0117 79.0234L23.9883 72.543C25.1055 71.3164 25.6641 70.1484 25.6641 69.0391C25.6641 68.4531 25.5234 68.0273 25.2422 67.7617C25.0391 67.5742 24.7305 67.4531 24.3164 67.3984C23.9023 67.3438 23.4648 67.3438 23.0039 67.3984C22.543 67.4453 22.1445 67.5352 21.8086 67.668C21.6523 68.8633 21.4648 69.6406 21.2461 70L19.1133 69.8828C18.8164 69.3594 18.6484 68.4688 18.6094 67.2109C18.6094 67.0781 18.6094 66.9648 18.6094 66.8711C18.6172 66.7695 18.625 66.6914 18.6328 66.6367C20.0781 65.707 21.8945 65.2422 24.082 65.2422Z" fill="black"/>
</svg>
