<svg width="50" height="100" viewBox="0 0 50 100" fill="none" xmlns="http://www.w3.org/2000/svg">
<rect x="1" y="1" width="48" height="98" rx="4" fill="white" stroke="black" stroke-width="2"/>
<line y1="49" x2="50" y2="49" stroke="black" stroke-width="2"/>
<path d="M26.8398 21.457L29.3359 21.7148V29.2266H31.1055V31.6289H29.3359V33.293C29.9688 33.5352 30.4062 33.8047 30.6484 34.1016L30.4141 36H24.3203L24.0742 34.1016C24.3867 33.7344 25.0352 33.4219 26.0195 33.1641V31.6289H19.082L18.4609 29.7305L23.5703 18.8672L26.0195 19.9219L22.9258 27.2109C22.6055 27.9531 22.2539 28.5469 21.8711 28.9922L21.6484 29.2617L21.7773 29.5195C22.3086 29.3242 22.9961 29.2266 23.8398 29.2266H26.0195V25.8047C26.0195 23.7656 26.293 22.3164 26.8398 21.457Z" fill="black"/>
<path d="M25.082 62.2422C28.543 62.2422 30.2734 63.6445 30.2734 66.4492C30.2734 67.0586 30.1211 67.7031 29.8164 68.3828C29.5117 69.0625 29.1484 69.6484 28.7266 70.1406L25.2461 74.3242C24.7227 74.918 24.1016 75.5156 23.3828 76.1172L22.9961 76.457L23.1133 76.7148C23.8555 76.5742 24.6406 76.5039 25.4688 76.5039H27.3672C27.4766 75.6211 27.6758 74.9336 27.9648 74.4414L30.2383 74.582C30.5977 75.1836 30.7773 76.1523 30.7773 77.4883C30.7773 78.0508 30.7188 78.5547 30.6016 79H19.5859L19.0117 76.0234L24.9883 69.543C26.1055 68.3164 26.6641 67.1484 26.6641 66.0391C26.6641 65.4531 26.5234 65.0273 26.2422 64.7617C26.0391 64.5742 25.7305 64.4531 25.3164 64.3984C24.9023 64.3438 24.4648 64.3438 24.0039 64.3984C23.543 64.4453 23.1445 64.5352 22.8086 64.668C22.6523 65.8633 22.4648 66.6406 22.2461 67L20.1133 66.8828C19.8164 66.3594 19.6484 65.4688 19.6094 64.2109C19.6094 64.0781 19.6094 63.9648 19.6094 63.8711C19.6172 63.7695 19.625 63.6914 19.6328 63.6367C21.0781 62.707 22.8945 62.2422 25.082 62.2422Z" fill="black"/>
</svg>
