<svg width="50" height="100" viewBox="0 0 50 100" fill="none" xmlns="http://www.w3.org/2000/svg">
<rect x="1" y="1" width="48" height="98" rx="4" fill="white" stroke="black" stroke-width="2"/>
<line y1="49" x2="50" y2="49" stroke="black" stroke-width="2"/>
<path d="M25.3164 25.3945C26.8867 25.3945 28.1133 25.8164 28.9961 26.6602C29.8867 27.4961 30.332 28.7461 30.332 30.4102C30.332 32.3789 29.75 33.8359 28.5859 34.7812C27.4297 35.7188 25.8125 36.1875 23.7344 36.1875C23.2891 36.1875 22.8047 36.1406 22.2812 36.0469C21.7656 35.9609 21.2734 35.8477 20.8047 35.707C20.3438 35.5586 19.9688 35.3984 19.6797 35.2266L20.4531 33.1406C21.3594 33.4922 22.3438 33.668 23.4062 33.668C24.4609 33.668 25.25 33.4531 25.7734 33.0234C26.3047 32.5938 26.5703 31.8984 26.5703 30.9375C26.5703 29.6328 26.2656 28.7773 25.6562 28.3711C25.1797 28.0352 24.6055 27.8672 23.9336 27.8672C23.2773 27.8672 22.4023 27.9453 21.3086 28.1016L20.3477 26.332H20.3242V19.4414H29.1836V22.1719H23.3242V25.5352C23.8398 25.4414 24.5039 25.3945 25.3164 25.3945Z" fill="black"/>
<path d="M25.082 62.2422C28.543 62.2422 30.2734 63.6445 30.2734 66.4492C30.2734 67.0586 30.1211 67.7031 29.8164 68.3828C29.5117 69.0625 29.1484 69.6484 28.7266 70.1406L25.2461 74.3242C24.7227 74.918 24.1016 75.5156 23.3828 76.1172L22.9961 76.457L23.1133 76.7148C23.8555 76.5742 24.6406 76.5039 25.4688 76.5039H27.3672C27.4766 75.6211 27.6758 74.9336 27.9648 74.4414L30.2383 74.582C30.5977 75.1836 30.7773 76.1523 30.7773 77.4883C30.7773 78.0508 30.7188 78.5547 30.6016 79H19.5859L19.0117 76.0234L24.9883 69.543C26.1055 68.3164 26.6641 67.1484 26.6641 66.0391C26.6641 65.4531 26.5234 65.0273 26.2422 64.7617C26.0391 64.5742 25.7305 64.4531 25.3164 64.3984C24.9023 64.3438 24.4648 64.3438 24.0039 64.3984C23.543 64.4453 23.1445 64.5352 22.8086 64.668C22.6523 65.8633 22.4648 66.6406 22.2461 67L20.1133 66.8828C19.8164 66.3594 19.6484 65.4688 19.6094 64.2109C19.6094 64.0781 19.6094 63.9648 19.6094 63.8711C19.6172 63.7695 19.625 63.6914 19.6328 63.6367C21.0781 62.707 22.8945 62.2422 25.082 62.2422Z" fill="black"/>
</svg>
