<svg width="50" height="100" viewBox="0 0 50 100" fill="none" xmlns="http://www.w3.org/2000/svg">
<rect x="1" y="1" width="48" height="98" rx="4" fill="white" stroke="black" stroke-width="2"/>
<line y1="49" x2="50" y2="49" stroke="black" stroke-width="2"/>
<path d="M25.3789 25.7812C26.957 25.7812 28.1797 26.2109 29.0469 27.0703C29.9141 27.9219 30.3477 29.1836 30.3477 30.8555C30.3477 32.5273 29.8008 33.8359 28.707 34.7812C27.6211 35.7188 26.1523 36.1875 24.3008 36.1875C22.4414 36.1875 21.1016 35.6484 20.2812 34.5703C19.4688 33.4922 19.0625 31.7852 19.0625 29.4492C19.0625 27.8867 19.3594 26.4062 19.9531 25.0078C20.5469 23.6094 21.3789 22.3945 22.4492 21.3633C23.5195 20.332 24.7734 19.5938 26.2109 19.1484L27.2188 21.1406C24.8828 22.1484 23.4219 23.8945 22.8359 26.3789C23.5859 25.9805 24.4336 25.7812 25.3789 25.7812ZM22.5195 28.8047V29.4492C22.5195 30.9961 22.6797 32.1328 23 32.8594C23.3203 33.5781 23.8242 33.9375 24.5117 33.9375C26.0977 33.9375 26.8906 32.9375 26.8906 30.9375C26.8906 29.9922 26.75 29.2852 26.4688 28.8164C26.1875 28.3398 25.7188 28.1016 25.0625 28.1016C24.0859 28.1016 23.2383 28.3359 22.5195 28.8047Z" fill="black"/>
<path d="M24.082 62.2422C27.543 62.2422 29.2734 63.6445 29.2734 66.4492C29.2734 67.0586 29.1211 67.7031 28.8164 68.3828C28.5117 69.0625 28.1484 69.6484 27.7266 70.1406L24.2461 74.3242C23.7227 74.918 23.1016 75.5156 22.3828 76.1172L21.9961 76.457L22.1133 76.7148C22.8555 76.5742 23.6406 76.5039 24.4688 76.5039H26.3672C26.4766 75.6211 26.6758 74.9336 26.9648 74.4414L29.2383 74.582C29.5977 75.1836 29.7773 76.1523 29.7773 77.4883C29.7773 78.0508 29.7188 78.5547 29.6016 79H18.5859L18.0117 76.0234L23.9883 69.543C25.1055 68.3164 25.6641 67.1484 25.6641 66.0391C25.6641 65.4531 25.5234 65.0273 25.2422 64.7617C25.0391 64.5742 24.7305 64.4531 24.3164 64.3984C23.9023 64.3438 23.4648 64.3438 23.0039 64.3984C22.543 64.4453 22.1445 64.5352 21.8086 64.668C21.6523 65.8633 21.4648 66.6406 21.2461 67L19.1133 66.8828C18.8164 66.3594 18.6484 65.4688 18.6094 64.2109C18.6094 64.0781 18.6094 63.9648 18.6094 63.8711C18.6172 63.7695 18.625 63.6914 18.6328 63.6367C20.0781 62.707 21.8945 62.2422 24.082 62.2422Z" fill="black"/>
</svg>
