<svg width="50" height="100" viewBox="0 0 50 100" fill="none" xmlns="http://www.w3.org/2000/svg">
<rect x="1" y="1" width="48" height="98" rx="4" fill="white" stroke="black" stroke-width="2"/>
<line y1="49" x2="50" y2="49" stroke="black" stroke-width="2"/>
<path d="M19.3203 20.543C19.3203 20.4336 19.3203 20.3359 19.3203 20.25C19.3281 20.1641 19.3359 20.0859 19.3438 20.0156C19.6094 19.8828 20.0078 19.7578 20.5391 19.6406C21.0703 19.5234 21.6328 19.4297 22.2266 19.3594C22.8281 19.2812 23.3594 19.2422 23.8203 19.2422C24.5156 19.2422 25.1484 19.3086 25.7188 19.4414C26.2969 19.5664 26.8594 19.7773 27.4062 20.0742C27.9531 20.3711 28.3789 20.8125 28.6836 21.3984C28.9961 21.9844 29.1523 22.6406 29.1523 23.3672C29.1523 24.0938 28.9375 24.7734 28.5078 25.4062C28.0781 26.0391 27.5664 26.5156 26.9727 26.8359V27.0469C28.8633 27.7188 29.8086 28.9609 29.8086 30.7734C29.8086 31.9844 29.5156 32.9922 28.9297 33.7969C28.3516 34.5938 27.543 35.1914 26.5039 35.5898C25.4727 35.9883 24.2773 36.1875 22.918 36.1875C22.4961 36.1875 22.0273 36.1445 21.5117 36.0586C21.0039 35.9727 20.5195 35.8633 20.0586 35.7305C19.5977 35.5898 19.2227 35.4492 18.9336 35.3086L19.4844 33.2344C20.5391 33.6406 21.5547 33.8438 22.5312 33.8438C24.8828 33.8438 26.0586 32.9961 26.0586 31.3008C26.0586 29.3789 25.125 28.418 23.2578 28.418C22.875 28.418 22.5039 28.4258 22.1445 28.4414C21.793 28.457 21.4492 28.4805 21.1133 28.5117L20.9023 26.4961L23.0352 26.3086C24.8477 26.1367 25.7539 25.2617 25.7539 23.6836C25.7539 22.8711 25.5586 22.2812 25.168 21.9141C24.7852 21.5469 24.2109 21.3633 23.4453 21.3633C23.1641 21.3633 22.875 21.3867 22.5781 21.4336C22.4688 22.3242 22.2695 22.9961 21.9805 23.4492L19.8477 23.332C19.4961 22.7695 19.3203 21.8398 19.3203 20.543Z" fill="black"/>
<path d="M19.3203 63.543C19.3203 63.4336 19.3203 63.3359 19.3203 63.25C19.3281 63.1641 19.3359 63.0859 19.3438 63.0156C19.6094 62.8828 20.0078 62.7578 20.5391 62.6406C21.0703 62.5234 21.6328 62.4297 22.2266 62.3594C22.8281 62.2812 23.3594 62.2422 23.8203 62.2422C24.5156 62.2422 25.1484 62.3086 25.7188 62.4414C26.2969 62.5664 26.8594 62.7773 27.4062 63.0742C27.9531 63.3711 28.3789 63.8125 28.6836 64.3984C28.9961 64.9844 29.1523 65.6406 29.1523 66.3672C29.1523 67.0938 28.9375 67.7734 28.5078 68.4062C28.0781 69.0391 27.5664 69.5156 26.9727 69.8359V70.0469C28.8633 70.7188 29.8086 71.9609 29.8086 73.7734C29.8086 74.9844 29.5156 75.9922 28.9297 76.7969C28.3516 77.5938 27.543 78.1914 26.5039 78.5898C25.4727 78.9883 24.2773 79.1875 22.918 79.1875C22.4961 79.1875 22.0273 79.1445 21.5117 79.0586C21.0039 78.9727 20.5195 78.8633 20.0586 78.7305C19.5977 78.5898 19.2227 78.4492 18.9336 78.3086L19.4844 76.2344C20.5391 76.6406 21.5547 76.8438 22.5312 76.8438C24.8828 76.8438 26.0586 75.9961 26.0586 74.3008C26.0586 72.3789 25.125 71.418 23.2578 71.418C22.875 71.418 22.5039 71.4258 22.1445 71.4414C21.793 71.457 21.4492 71.4805 21.1133 71.5117L20.9023 69.4961L23.0352 69.3086C24.8477 69.1367 25.7539 68.2617 25.7539 66.6836C25.7539 65.8711 25.5586 65.2812 25.168 64.9141C24.7852 64.5469 24.2109 64.3633 23.4453 64.3633C23.1641 64.3633 22.875 64.3867 22.5781 64.4336C22.4688 65.3242 22.2695 65.9961 21.9805 66.4492L19.8477 66.332C19.4961 65.7695 19.3203 64.8398 19.3203 63.543Z" fill="black"/>
</svg>
