<svg width="50" height="100" viewBox="0 0 50 100" fill="none" xmlns="http://www.w3.org/2000/svg">
<rect x="1" y="1" width="48" height="98" rx="4" fill="white" stroke="black" stroke-width="2"/>
<line y1="49" x2="50" y2="49" stroke="black" stroke-width="2"/>
<path d="M26.8398 21.457L29.3359 21.7148V29.2266H31.1055V31.6289H29.3359V33.293C29.9688 33.5352 30.4062 33.8047 30.6484 34.1016L30.4141 36H24.3203L24.0742 34.1016C24.3867 33.7344 25.0352 33.4219 26.0195 33.1641V31.6289H19.082L18.4609 29.7305L23.5703 18.8672L26.0195 19.9219L22.9258 27.2109C22.6055 27.9531 22.2539 28.5469 21.8711 28.9922L21.6484 29.2617L21.7773 29.5195C22.3086 29.3242 22.9961 29.2266 23.8398 29.2266H26.0195V25.8047C26.0195 23.7656 26.293 22.3164 26.8398 21.457Z" fill="black"/>
<path d="M20.3203 63.543C20.3203 63.4336 20.3203 63.3359 20.3203 63.25C20.3281 63.1641 20.3359 63.0859 20.3438 63.0156C20.6094 62.8828 21.0078 62.7578 21.5391 62.6406C22.0703 62.5234 22.6328 62.4297 23.2266 62.3594C23.8281 62.2812 24.3594 62.2422 24.8203 62.2422C25.5156 62.2422 26.1484 62.3086 26.7188 62.4414C27.2969 62.5664 27.8594 62.7773 28.4062 63.0742C28.9531 63.3711 29.3789 63.8125 29.6836 64.3984C29.9961 64.9844 30.1523 65.6406 30.1523 66.3672C30.1523 67.0938 29.9375 67.7734 29.5078 68.4062C29.0781 69.0391 28.5664 69.5156 27.9727 69.8359V70.0469C29.8633 70.7188 30.8086 71.9609 30.8086 73.7734C30.8086 74.9844 30.5156 75.9922 29.9297 76.7969C29.3516 77.5938 28.543 78.1914 27.5039 78.5898C26.4727 78.9883 25.2773 79.1875 23.918 79.1875C23.4961 79.1875 23.0273 79.1445 22.5117 79.0586C22.0039 78.9727 21.5195 78.8633 21.0586 78.7305C20.5977 78.5898 20.2227 78.4492 19.9336 78.3086L20.4844 76.2344C21.5391 76.6406 22.5547 76.8438 23.5312 76.8438C25.8828 76.8438 27.0586 75.9961 27.0586 74.3008C27.0586 72.3789 26.125 71.418 24.2578 71.418C23.875 71.418 23.5039 71.4258 23.1445 71.4414C22.793 71.457 22.4492 71.4805 22.1133 71.5117L21.9023 69.4961L24.0352 69.3086C25.8477 69.1367 26.7539 68.2617 26.7539 66.6836C26.7539 65.8711 26.5586 65.2812 26.168 64.9141C25.7852 64.5469 25.2109 64.3633 24.4453 64.3633C24.1641 64.3633 23.875 64.3867 23.5781 64.4336C23.4688 65.3242 23.2695 65.9961 22.9805 66.4492L20.8477 66.332C20.4961 65.7695 20.3203 64.8398 20.3203 63.543Z" fill="black"/>
</svg>
