<svg width="50" height="100" viewBox="0 0 50 100" fill="none" xmlns="http://www.w3.org/2000/svg">
<rect x="1" y="1" width="48" height="98" rx="4" fill="white" stroke="black" stroke-width="2"/>
<line y1="49" x2="50" y2="49" stroke="black" stroke-width="2"/>
<path d="M25.3789 25.7812C26.957 25.7812 28.1797 26.2109 29.0469 27.0703C29.9141 27.9219 30.3477 29.1836 30.3477 30.8555C30.3477 32.5273 29.8008 33.8359 28.707 34.7812C27.6211 35.7188 26.1523 36.1875 24.3008 36.1875C22.4414 36.1875 21.1016 35.6484 20.2812 34.5703C19.4688 33.4922 19.0625 31.7852 19.0625 29.4492C19.0625 27.8867 19.3594 26.4062 19.9531 25.0078C20.5469 23.6094 21.3789 22.3945 22.4492 21.3633C23.5195 20.332 24.7734 19.5938 26.2109 19.1484L27.2188 21.1406C24.8828 22.1484 23.4219 23.8945 22.8359 26.3789C23.5859 25.9805 24.4336 25.7812 25.3789 25.7812ZM22.5195 28.8047V29.4492C22.5195 30.9961 22.6797 32.1328 23 32.8594C23.3203 33.5781 23.8242 33.9375 24.5117 33.9375C26.0977 33.9375 26.8906 32.9375 26.8906 30.9375C26.8906 29.9922 26.75 29.2852 26.4688 28.8164C26.1875 28.3398 25.7188 28.1016 25.0625 28.1016C24.0859 28.1016 23.2383 28.3359 22.5195 28.8047Z" fill="black"/>
<path d="M19.3203 63.543C19.3203 63.4336 19.3203 63.3359 19.3203 63.25C19.3281 63.1641 19.3359 63.0859 19.3438 63.0156C19.6094 62.8828 20.0078 62.7578 20.5391 62.6406C21.0703 62.5234 21.6328 62.4297 22.2266 62.3594C22.8281 62.2812 23.3594 62.2422 23.8203 62.2422C24.5156 62.2422 25.1484 62.3086 25.7188 62.4414C26.2969 62.5664 26.8594 62.7773 27.4062 63.0742C27.9531 63.3711 28.3789 63.8125 28.6836 64.3984C28.9961 64.9844 29.1523 65.6406 29.1523 66.3672C29.1523 67.0938 28.9375 67.7734 28.5078 68.4062C28.0781 69.0391 27.5664 69.5156 26.9727 69.8359V70.0469C28.8633 70.7188 29.8086 71.9609 29.8086 73.7734C29.8086 74.9844 29.5156 75.9922 28.9297 76.7969C28.3516 77.5938 27.543 78.1914 26.5039 78.5898C25.4727 78.9883 24.2773 79.1875 22.918 79.1875C22.4961 79.1875 22.0273 79.1445 21.5117 79.0586C21.0039 78.9727 20.5195 78.8633 20.0586 78.7305C19.5977 78.5898 19.2227 78.4492 18.9336 78.3086L19.4844 76.2344C20.5391 76.6406 21.5547 76.8438 22.5312 76.8438C24.8828 76.8438 26.0586 75.9961 26.0586 74.3008C26.0586 72.3789 25.125 71.418 23.2578 71.418C22.875 71.418 22.5039 71.4258 22.1445 71.4414C21.793 71.457 21.4492 71.4805 21.1133 71.5117L20.9023 69.4961L23.0352 69.3086C24.8477 69.1367 25.7539 68.2617 25.7539 66.6836C25.7539 65.8711 25.5586 65.2812 25.168 64.9141C24.7852 64.5469 24.2109 64.3633 23.4453 64.3633C23.1641 64.3633 22.875 64.3867 22.5781 64.4336C22.4688 65.3242 22.2695 65.9961 21.9805 66.4492L19.8477 66.332C19.4961 65.7695 19.3203 64.8398 19.3203 63.543Z" fill="black"/>
</svg>
