<svg width="50" height="100" viewBox="0 0 50 100" fill="none" xmlns="http://www.w3.org/2000/svg">
<rect x="1" y="1" width="48" height="98" rx="4" fill="white" stroke="black" stroke-width="2"/>
<line y1="49" x2="50" y2="49" stroke="black" stroke-width="2"/>
<path d="M26.8398 21.457L29.3359 21.7148V29.2266H31.1055V31.6289H29.3359V33.293C29.9688 33.5352 30.4062 33.8047 30.6484 34.1016L30.4141 36H24.3203L24.0742 34.1016C24.3867 33.7344 25.0352 33.4219 26.0195 33.1641V31.6289H19.082L18.4609 29.7305L23.5703 18.8672L26.0195 19.9219L22.9258 27.2109C22.6055 27.9531 22.2539 28.5469 21.8711 28.9922L21.6484 29.2617L21.7773 29.5195C22.3086 29.3242 22.9961 29.2266 23.8398 29.2266H26.0195V25.8047C26.0195 23.7656 26.293 22.3164 26.8398 21.457Z" fill="black"/>
<path d="M26.8398 64.457L29.3359 64.7148V72.2266H31.1055V74.6289H29.3359V76.293C29.9688 76.5352 30.4062 76.8047 30.6484 77.1016L30.4141 79H24.3203L24.0742 77.1016C24.3867 76.7344 25.0352 76.4219 26.0195 76.1641V74.6289H19.082L18.4609 72.7305L23.5703 61.8672L26.0195 62.9219L22.9258 70.2109C22.6055 70.9531 22.2539 71.5469 21.8711 71.9922L21.6484 72.2617L21.7773 72.5195C22.3086 72.3242 22.9961 72.2266 23.8398 72.2266H26.0195V68.8047C26.0195 66.7656 26.293 65.3164 26.8398 64.457Z" fill="black"/>
</svg>
