<svg width="50" height="100" viewBox="0 0 50 100" fill="none" xmlns="http://www.w3.org/2000/svg">
<rect x="1" y="1" width="48" height="98" rx="4" fill="white" stroke="black" stroke-width="2"/>
<line y1="49" x2="50" y2="49" stroke="black" stroke-width="2"/>
<path d="M25.3164 25.3945C26.8867 25.3945 28.1133 25.8164 28.9961 26.6602C29.8867 27.4961 30.332 28.7461 30.332 30.4102C30.332 32.3789 29.75 33.8359 28.5859 34.7812C27.4297 35.7188 25.8125 36.1875 23.7344 36.1875C23.2891 36.1875 22.8047 36.1406 22.2812 36.0469C21.7656 35.9609 21.2734 35.8477 20.8047 35.707C20.3438 35.5586 19.9688 35.3984 19.6797 35.2266L20.4531 33.1406C21.3594 33.4922 22.3438 33.668 23.4062 33.668C24.4609 33.668 25.25 33.4531 25.7734 33.0234C26.3047 32.5938 26.5703 31.8984 26.5703 30.9375C26.5703 29.6328 26.2656 28.7773 25.6562 28.3711C25.1797 28.0352 24.6055 27.8672 23.9336 27.8672C23.2773 27.8672 22.4023 27.9453 21.3086 28.1016L20.3477 26.332H20.3242V19.4414H29.1836V22.1719H23.3242V25.5352C23.8398 25.4414 24.5039 25.3945 25.3164 25.3945Z" fill="black"/>
<path d="M26.8398 64.457L29.3359 64.7148V72.2266H31.1055V74.6289H29.3359V76.293C29.9688 76.5352 30.4062 76.8047 30.6484 77.1016L30.4141 79H24.3203L24.0742 77.1016C24.3867 76.7344 25.0352 76.4219 26.0195 76.1641V74.6289H19.082L18.4609 72.7305L23.5703 61.8672L26.0195 62.9219L22.9258 70.2109C22.6055 70.9531 22.2539 71.5469 21.8711 71.9922L21.6484 72.2617L21.7773 72.5195C22.3086 72.3242 22.9961 72.2266 23.8398 72.2266H26.0195V68.8047C26.0195 66.7656 26.293 65.3164 26.8398 64.457Z" fill="black"/>
</svg>
