<svg width="50" height="100" viewBox="0 0 50 100" fill="none" xmlns="http://www.w3.org/2000/svg">
<rect x="1" y="1" width="48" height="98" rx="4" fill="white" stroke="black" stroke-width="2"/>
<line y1="49" x2="50" y2="49" stroke="black" stroke-width="2"/>
<path d="M25.3789 25.7812C26.957 25.7812 28.1797 26.2109 29.0469 27.0703C29.9141 27.9219 30.3477 29.1836 30.3477 30.8555C30.3477 32.5273 29.8008 33.8359 28.707 34.7812C27.6211 35.7188 26.1523 36.1875 24.3008 36.1875C22.4414 36.1875 21.1016 35.6484 20.2812 34.5703C19.4688 33.4922 19.0625 31.7852 19.0625 29.4492C19.0625 27.8867 19.3594 26.4062 19.9531 25.0078C20.5469 23.6094 21.3789 22.3945 22.4492 21.3633C23.5195 20.332 24.7734 19.5938 26.2109 19.1484L27.2188 21.1406C24.8828 22.1484 23.4219 23.8945 22.8359 26.3789C23.5859 25.9805 24.4336 25.7812 25.3789 25.7812ZM22.5195 28.8047V29.4492C22.5195 30.9961 22.6797 32.1328 23 32.8594C23.3203 33.5781 23.8242 33.9375 24.5117 33.9375C26.0977 33.9375 26.8906 32.9375 26.8906 30.9375C26.8906 29.9922 26.75 29.2852 26.4688 28.8164C26.1875 28.3398 25.7188 28.1016 25.0625 28.1016C24.0859 28.1016 23.2383 28.3359 22.5195 28.8047Z" fill="black"/>
<path d="M25.8398 64.457L28.3359 64.7148V72.2266H30.1055V74.6289H28.3359V76.293C28.9688 76.5352 29.4062 76.8047 29.6484 77.1016L29.4141 79H23.3203L23.0742 77.1016C23.3867 76.7344 24.0352 76.4219 25.0195 76.1641V74.6289H18.082L17.4609 72.7305L22.5703 61.8672L25.0195 62.9219L21.9258 70.2109C21.6055 70.9531 21.2539 71.5469 20.8711 71.9922L20.6484 72.2617L20.7773 72.5195C21.3086 72.3242 21.9961 72.2266 22.8398 72.2266H25.0195V68.8047C25.0195 66.7656 25.293 65.3164 25.8398 64.457Z" fill="black"/>
</svg>
