<svg width="50" height="100" viewBox="0 0 50 100" fill="none" xmlns="http://www.w3.org/2000/svg">
<rect x="1" y="1" width="48" height="98" rx="4" fill="white" stroke="black" stroke-width="2"/>
<line y1="49" x2="50" y2="49" stroke="black" stroke-width="2"/>
<path d="M25.3789 25.7812C26.957 25.7812 28.1797 26.2109 29.0469 27.0703C29.9141 27.9219 30.3477 29.1836 30.3477 30.8555C30.3477 32.5273 29.8008 33.8359 28.707 34.7812C27.6211 35.7188 26.1523 36.1875 24.3008 36.1875C22.4414 36.1875 21.1016 35.6484 20.2812 34.5703C19.4688 33.4922 19.0625 31.7852 19.0625 29.4492C19.0625 27.8867 19.3594 26.4062 19.9531 25.0078C20.5469 23.6094 21.3789 22.3945 22.4492 21.3633C23.5195 20.332 24.7734 19.5938 26.2109 19.1484L27.2188 21.1406C24.8828 22.1484 23.4219 23.8945 22.8359 26.3789C23.5859 25.9805 24.4336 25.7812 25.3789 25.7812ZM22.5195 28.8047V29.4492C22.5195 30.9961 22.6797 32.1328 23 32.8594C23.3203 33.5781 23.8242 33.9375 24.5117 33.9375C26.0977 33.9375 26.8906 32.9375 26.8906 30.9375C26.8906 29.9922 26.75 29.2852 26.4688 28.8164C26.1875 28.3398 25.7188 28.1016 25.0625 28.1016C24.0859 28.1016 23.2383 28.3359 22.5195 28.8047Z" fill="black"/>
<path d="M24.3164 68.3945C25.8867 68.3945 27.1133 68.8164 27.9961 69.6602C28.8867 70.4961 29.332 71.7461 29.332 73.4102C29.332 75.3789 28.75 76.8359 27.5859 77.7812C26.4297 78.7188 24.8125 79.1875 22.7344 79.1875C22.2891 79.1875 21.8047 79.1406 21.2812 79.0469C20.7656 78.9609 20.2734 78.8477 19.8047 78.707C19.3438 78.5586 18.9688 78.3984 18.6797 78.2266L19.4531 76.1406C20.3594 76.4922 21.3438 76.668 22.4062 76.668C23.4609 76.668 24.25 76.4531 24.7734 76.0234C25.3047 75.5938 25.5703 74.8984 25.5703 73.9375C25.5703 72.6328 25.2656 71.7773 24.6562 71.3711C24.1797 71.0352 23.6055 70.8672 22.9336 70.8672C22.2773 70.8672 21.4023 70.9453 20.3086 71.1016L19.3477 69.332H19.3242V62.4414H28.1836V65.1719H22.3242V68.5352C22.8398 68.4414 23.5039 68.3945 24.3164 68.3945Z" fill="black"/>
</svg>
