<svg width="50" height="100" viewBox="0 0 50 100" fill="none" xmlns="http://www.w3.org/2000/svg">
<rect x="1" y="1" width="48" height="98" rx="4" fill="white" stroke="black" stroke-width="2"/>
<line y1="49" x2="50" y2="49" stroke="black" stroke-width="2"/>
<path d="M25.1719 25.7812C26.75 25.7812 27.9727 26.2109 28.8398 27.0703C29.707 27.9219 30.1406 29.1836 30.1406 30.8555C30.1406 32.5273 29.5938 33.8359 28.5 34.7812C27.4141 35.7188 25.9453 36.1875 24.0938 36.1875C22.2344 36.1875 20.8945 35.6484 20.0742 34.5703C19.2617 33.4922 18.8555 31.7852 18.8555 29.4492C18.8555 27.8867 19.1523 26.4062 19.7461 25.0078C20.3398 23.6094 21.1719 22.3945 22.2422 21.3633C23.3125 20.332 24.5664 19.5938 26.0039 19.1484L27.0117 21.1406C24.6758 22.1484 23.2148 23.8945 22.6289 26.3789C23.3789 25.9805 24.2266 25.7812 25.1719 25.7812ZM22.3125 28.8047V29.4492C22.3125 30.9961 22.4727 32.1328 22.793 32.8594C23.1133 33.5781 23.6172 33.9375 24.3047 33.9375C25.8906 33.9375 26.6836 32.9375 26.6836 30.9375C26.6836 29.9922 26.543 29.2852 26.2617 28.8164C25.9805 28.3398 25.5117 28.1016 24.8555 28.1016C23.8789 28.1016 23.0312 28.3359 22.3125 28.8047Z" fill="black"/>
<path d="M25.1719 68.7812C26.75 68.7812 27.9727 69.2109 28.8398 70.0703C29.707 70.9219 30.1406 72.1836 30.1406 73.8555C30.1406 75.5273 29.5938 76.8359 28.5 77.7812C27.4141 78.7188 25.9453 79.1875 24.0938 79.1875C22.2344 79.1875 20.8945 78.6484 20.0742 77.5703C19.2617 76.4922 18.8555 74.7852 18.8555 72.4492C18.8555 70.8867 19.1523 69.4062 19.7461 68.0078C20.3398 66.6094 21.1719 65.3945 22.2422 64.3633C23.3125 63.332 24.5664 62.5938 26.0039 62.1484L27.0117 64.1406C24.6758 65.1484 23.2148 66.8945 22.6289 69.3789C23.3789 68.9805 24.2266 68.7812 25.1719 68.7812ZM22.3125 71.8047V72.4492C22.3125 73.9961 22.4727 75.1328 22.793 75.8594C23.1133 76.5781 23.6172 76.9375 24.3047 76.9375C25.8906 76.9375 26.6836 75.9375 26.6836 73.9375C26.6836 72.9922 26.543 72.2852 26.2617 71.8164C25.9805 71.3398 25.5117 71.1016 24.8555 71.1016C23.8789 71.1016 23.0312 71.3359 22.3125 71.8047Z" fill="black"/>
</svg>
